<?xml version="1.0" encoding="UTF-8" standalone="no"?>
<!DOCTYPE svg PUBLIC "-//W3C//DTD SVG 1.1//EN" "http://www.w3.org/Graphics/SVG/1.1/DTD/svg11.dtd">
<svg width="100%" height="100%" viewBox="0 0 390 338" version="1.1" xmlns="http://www.w3.org/2000/svg" xmlns:xlink="http://www.w3.org/1999/xlink" xml:space="preserve" xmlns:serif="http://www.serif.com/" style="fill-rule:evenodd;clip-rule:evenodd;stroke-linejoin:round;stroke-miterlimit:2;">
    <g transform="matrix(1,0,0,1,-561.07,-181.209)">
        <path d="M901.327,359.286C872.089,337.428 826.295,316.756 775.687,302.572C729.609,289.656 684.666,283.421 649.127,285.013L648.942,280.88C684.904,279.27 730.314,285.558 776.804,298.588C827.883,312.905 874.173,333.821 903.804,355.972L901.327,359.286Z" style="fill:rgb(204,204,204);fill-rule:nonzero;"/>
    </g>
    <g transform="matrix(1,0,0,1,-561.07,-181.209)">
        <path d="M898.291,376.122C898.317,395.487 894.257,414.641 886.377,432.331C885.719,433.812 885.034,435.279 884.321,436.732C861.186,484.116 812.867,514.296 760.137,514.296C684.333,514.296 621.953,451.925 621.942,376.122C621.942,372.924 622.051,369.751 622.269,366.603C622.373,365.002 622.506,363.41 622.671,361.829C629.958,291.783 689.687,237.947 760.11,237.947C835.911,237.947 898.288,300.32 898.291,376.122L898.291,376.122Z" style="fill:rgb(108,99,255);fill-rule:nonzero;"/>
    </g>
    <g transform="matrix(1,0,0,1,-561.07,-181.209)">
        <path d="M886.377,432.331C885.719,433.812 885.034,435.279 884.321,436.732C880.283,437.171 876.033,437.489 871.571,437.688C867.876,437.853 864.075,437.936 860.19,437.936C826.259,437.936 785.423,431.673 743.706,419.982C697.214,406.95 655.154,388.723 625.269,368.654C624.251,367.972 623.251,367.288 622.269,366.603C622.373,365.002 622.506,363.41 622.671,361.829C624.255,362.958 625.889,364.089 627.573,365.221C657.107,385.049 698.745,403.082 744.823,415.998C786.176,427.59 826.627,433.799 860.169,433.799C864.004,433.799 867.743,433.718 871.385,433.555C876.688,433.315 881.686,432.907 886.377,432.331Z" style="fill-opacity:0.1;fill-rule:nonzero;"/>
    </g>
    <g transform="matrix(1,0,0,1,-561.07,-181.209)">
        <path d="M860.191,434.627C826.26,434.628 785.422,428.364 743.707,416.672C697.216,403.641 655.154,385.413 625.268,365.345C594.758,344.859 580.452,324.672 584.984,308.504C589.515,292.336 612.229,282.526 648.942,280.88L649.127,285.013C631.983,285.781 618.011,288.33 607.6,292.587C597.214,296.834 590.945,302.565 588.967,309.621C586.989,316.676 589.367,324.83 596.032,333.857C602.714,342.905 613.326,352.344 627.574,361.911C657.104,381.74 698.744,399.774 744.823,412.689C786.177,424.279 826.625,430.49 860.17,430.491C864.003,430.491 867.741,430.41 871.383,430.247C888.528,429.478 902.5,426.93 912.911,422.673C923.297,418.426 929.566,412.695 931.544,405.64C935.095,392.97 924.364,376.508 901.327,359.286L903.804,355.972C915.659,364.835 924.434,373.571 929.886,381.937C935.731,390.906 937.629,399.257 935.527,406.756C930.996,422.924 908.281,432.734 871.569,434.38C867.875,434.545 864.075,434.627 860.191,434.627Z" style="fill:rgb(204,204,204);fill-rule:nonzero;"/>
    </g>
    <g transform="matrix(1,0,0,1,-365,-22)">
        <circle cx="567.702" cy="52.235" r="1.583" style="fill:rgb(242,242,242);"/>
    </g>
    <g transform="matrix(1,0,0,1,-365,-22)">
        <circle cx="674.842" cy="61.735" r="3.586" style="fill:rgb(204,204,204);"/>
    </g>
    <g transform="matrix(1,0,0,1,-365,-22)">
        <circle cx="756.506" cy="117.58" r="2.498" style="fill:rgb(204,204,204);"/>
    </g>
    <g transform="matrix(1,0,0,1,-365,-22)">
        <circle cx="453.173" cy="85.485" r="3.897" style="fill:rgb(204,204,204);"/>
    </g>
    <g transform="matrix(1,0,0,1,-365,-22)">
        <circle cx="747.762" cy="198.772" r="2.498" style="fill:rgb(204,204,204);"/>
    </g>
    <g transform="matrix(1,0,0,1,-365,-22)">
        <circle cx="364.506" cy="302.413" r="3.109" style="fill:rgb(204,204,204);"/>
    </g>
    <g transform="matrix(1,0,0,1,-365,-22)">
        <circle cx="427.312" cy="345.691" r="3.367" style="fill:rgb(204,204,204);"/>
    </g>
    <g transform="matrix(1,0,0,1,-365,-22)">
        <circle cx="566.119" cy="108.717" r="11.611" style="fill-opacity:0.1;"/>
    </g>
    <g transform="matrix(1,0,0,1,-365,-22)">
        <circle cx="476.924" cy="193.69" r="11.611" style="fill-opacity:0.1;"/>
    </g>
    <g transform="matrix(1,0,0,1,-365,-22)">
        <circle cx="605.175" cy="310.33" r="11.611" style="fill-opacity:0.1;"/>
    </g>
    <g transform="matrix(1,0,0,1,-365,-22)">
        <circle cx="566.119" cy="211.635" r="11.611" style="fill-opacity:0.1;"/>
    </g>
    <g transform="matrix(1,0,0,1,-365,-22)">
        <circle cx="482.729" cy="275.496" r="11.611" style="fill-opacity:0.1;"/>
    </g>
    <g transform="matrix(1,0,0,1,-365,-22)">
        <circle cx="628.397" cy="149.357" r="11.611" style="fill-opacity:0.1;"/>
    </g>
    <g transform="matrix(1,0,0,1,-365,-22)">
        <circle cx="666.925" cy="227.996" r="11.611" style="fill-opacity:0.1;"/>
    </g>
    <g transform="matrix(1,0,0,1,-365,-22)">
        <circle cx="566.119" cy="160.968" r="15.306" style="fill:white;"/>
    </g>
    <g transform="matrix(1,0,0,1,-561.07,-181.209)">
        <path d="M762.189,298.01C750.318,298.01 740.55,307.778 740.55,319.649C740.55,331.6 762.189,370.844 762.189,370.844C762.189,370.844 783.828,331.6 783.828,319.649C783.828,307.778 774.06,298.01 762.189,298.01ZM762.189,330.205C756.688,330.205 752.161,325.678 752.161,320.177C752.161,314.676 756.688,310.149 762.189,310.149C767.69,310.149 772.217,314.676 772.217,320.177C772.217,320.177 772.217,320.177 772.217,320.177C772.217,325.678 767.69,330.205 762.189,330.205C762.189,330.205 762.189,330.205 762.189,330.205Z" style="fill:rgb(204,204,204);fill-rule:nonzero;"/>
    </g>
    <g transform="matrix(1,0,0,1,-365,-22)">
        <circle cx="482.729" cy="226.413" r="15.306" style="fill:white;"/>
    </g>
    <g transform="matrix(1,0,0,1,-561.07,-181.209)">
        <path d="M678.799,363.455C666.929,363.455 657.16,373.223 657.16,385.094C657.16,397.045 678.799,436.289 678.799,436.289C678.799,436.289 700.438,397.045 700.438,385.094C700.438,373.223 690.67,363.455 678.799,363.455ZM678.799,395.65C673.298,395.65 668.772,391.123 668.772,385.622C668.772,380.121 673.298,375.594 678.799,375.594C684.3,375.594 688.827,380.121 688.827,385.622L688.827,385.622C688.827,391.123 684.301,395.65 678.799,395.65C678.799,395.65 678.799,395.65 678.799,395.65Z" style="fill:rgb(204,204,204);fill-rule:nonzero;"/>
    </g>
    <g transform="matrix(1,0,0,1,-365,-22)">
        <circle cx="666.925" cy="178.912" r="15.306" style="fill:white;"/>
    </g>
    <g transform="matrix(1,0,0,1,-561.07,-181.209)">
        <path d="M862.995,315.955C851.124,315.955 841.356,325.723 841.356,337.594C841.356,337.594 841.356,337.594 841.356,337.594C841.356,349.545 862.995,388.788 862.995,388.788C862.995,388.788 884.634,349.545 884.634,337.594C884.634,337.594 884.634,337.594 884.634,337.594C884.634,325.723 874.866,315.955 862.995,315.955ZM862.995,348.149C857.494,348.149 852.967,343.623 852.967,338.121C852.967,332.62 857.494,328.094 862.995,328.094C868.496,328.094 873.023,332.62 873.023,338.121L873.023,338.121C873.023,343.623 868.496,348.149 862.995,348.149L862.995,348.149Z" style="fill:rgb(204,204,204);fill-rule:nonzero;"/>
    </g>
    <g transform="matrix(1,0,0,1,-365,-22)">
        <circle cx="566.119" cy="58.05" r="15.306" style="fill:white;"/>
    </g>
    <g transform="matrix(1,0,0,1,-561.07,-181.209)">
        <path d="M762.189,195.093C750.318,195.093 740.55,204.861 740.55,216.732C740.55,228.683 762.189,267.926 762.189,267.926C762.189,267.926 783.828,228.683 783.828,216.732C783.828,204.861 774.06,195.093 762.189,195.093ZM762.189,227.287C756.688,227.287 752.161,222.761 752.161,217.259C752.161,211.758 756.688,207.232 762.189,207.232C767.69,207.232 772.217,211.758 772.217,217.259C772.217,217.259 772.217,217.259 772.217,217.259C772.217,222.761 767.69,227.287 762.189,227.287C762.189,227.287 762.189,227.287 762.189,227.287Z" style="fill:rgb(204,204,204);fill-rule:nonzero;"/>
    </g>
    <g transform="matrix(1,0,0,1,-365,-22)">
        <circle cx="605.175" cy="261.246" r="15.306" style="fill:white;"/>
    </g>
    <g transform="matrix(1,0,0,1,-561.07,-181.209)">
        <path d="M801.245,398.289C789.374,398.289 779.606,408.057 779.606,419.928C779.606,431.878 801.245,471.122 801.245,471.122C801.245,471.122 822.884,431.878 822.884,419.928C822.884,408.057 813.115,398.289 801.245,398.289ZM801.245,430.483C795.744,430.483 791.217,425.956 791.217,420.455C791.217,414.954 795.744,410.427 801.245,410.427C806.746,410.427 811.273,414.954 811.273,420.455C811.273,420.455 811.273,420.455 811.273,420.455C811.273,425.956 806.746,430.483 801.245,430.483C801.245,430.483 801.245,430.483 801.245,430.483Z" style="fill:rgb(63,61,86);fill-rule:nonzero;"/>
    </g>
    <g transform="matrix(1,0,0,1,-365,-22)">
        <circle cx="476.924" cy="143.551" r="15.306" style="fill:white;"/>
    </g>
    <g transform="matrix(1,0,0,1,-561.07,-181.209)">
        <path d="M672.994,280.593C661.123,280.593 651.355,290.361 651.355,302.232C651.355,314.183 672.994,353.427 672.994,353.427C672.994,353.427 694.633,314.183 694.633,302.232C694.633,290.361 684.865,280.593 672.994,280.593ZM672.994,312.788C667.493,312.788 662.966,308.261 662.966,302.76C662.966,297.259 667.493,292.732 672.994,292.732C678.495,292.732 683.022,297.259 683.022,302.76C683.022,302.76 683.022,302.76 683.022,302.76C683.022,308.261 678.495,312.788 672.994,312.788C672.994,312.788 672.994,312.788 672.994,312.788Z" style="fill:rgb(63,61,86);fill-rule:nonzero;"/>
    </g>
    <g transform="matrix(1,0,0,1,-365,-22)">
        <circle cx="628.397" cy="100.801" r="15.306" style="fill:white;"/>
    </g>
    <g transform="matrix(1,0,0,1,-561.07,-181.209)">
        <path d="M824.467,237.843C812.596,237.843 802.828,247.611 802.828,259.482C802.828,271.433 824.467,310.677 824.467,310.677C824.467,310.677 846.106,271.433 846.106,259.482C846.106,247.611 836.338,237.843 824.467,237.843ZM824.467,270.038C818.966,270.038 814.439,265.511 814.439,260.01C814.439,254.509 818.966,249.982 824.467,249.982C829.968,249.982 834.495,254.509 834.495,260.01C834.495,265.511 829.968,270.038 824.467,270.038L824.467,270.038Z" style="fill:rgb(63,61,86);fill-rule:nonzero;"/>
    </g>
</svg>
